<svg id="Layer_1" data-name="Layer 1" xmlns="http://www.w3.org/2000/svg" xmlns:xlink="http://www.w3.org/1999/xlink" viewBox="0 0 1920 1080"><defs><style>.cls-1{stroke:#231f20;stroke-miterlimit:10;fill:url(#linear-gradient);}.cls-2{fill:#fff;opacity:0.1;}</style><linearGradient id="linear-gradient" x1="-35.93" y1="-12.75" x2="1939.79" y2="1069.74" gradientUnits="userSpaceOnUse"><stop offset="0.24" stop-color="#b1171c"/><stop offset="0.39" stop-color="#7c1d31"/><stop offset="0.55" stop-color="#492246"/><stop offset="0.67" stop-color="#292653"/><stop offset="0.74" stop-color="#1d2758"/></linearGradient></defs><title>backgroundInfimum</title><rect class="cls-1" x="-52.18" y="-52.88" width="2011.76" height="1164.71"/><path class="cls-2" d="M417.88,569.94c92.28,70.85,59.23,143.88,141.67,201.39,101.92,71.11,204.07-4.49,269.44,61.11,53.52,53.71,57.72,177.29,4.17,254.17-88.15,126.56-263.43,27-716.67,98.61-39.54,6.25-101.45,17-176.39-4.17-100.19-28.28-231-115.66-243-234.72-13.14-130,122.46-228.18,263.89-330.55,71.79-52,135.1-96.54,230.55-104.17C216.93,509.58,327.73,500.72,417.88,569.94Z"/><path class="cls-2" d="M2061.52,424.67c-111,78.78-318.49,163.67-425.73,82.25-89.68-68.09-47.24-205.4-159.38-268.55-65.51-36.89-111.5-7.76-154.1-50.33-66.79-66.75-24.45-209-14.63-242,43.52-146.27,182.13-340.16,403-374.19C1988.31-471,2282.34-243.62,2295.08,17.16,2306.12,243.16,2101.15,396.55,2061.52,424.67Z"/></svg>