<?xml version="1.0" encoding="utf-8"?>
<!DOCTYPE svg PUBLIC "-//W3C//DTD SVG 1.1//EN" "http://www.w3.org/Graphics/SVG/1.1/DTD/svg11.dtd">
<svg version="1.1" xmlns="http://www.w3.org/2000/svg" xmlns:xlink="http://www.w3.org/1999/xlink" x="0px" y="0px" viewBox="0 0 1000 1000" enable-background="new 0 0 1000 1000" xml:space="preserve">
<g><g><path fill="rgba(254, 201, 23, 1)" d="M989.9,807.3h-83.7c6.6,9,10.6,20.2,10.6,32.2c0,30.1-24.6,54.6-54.5,54.6c-30.2,0-54.6-24.5-54.6-54.6c0-11.9,3.8-23.2,10.6-32.2H757c0.1,1.3,0.2,2.7,0.2,4.1c0,45.7-36.9,82.7-82.5,82.7s-82.7-37-82.7-82.7c0-1.3,0.2-2.8,0.2-4.1h-30.4c0.2,1.3,0.2,2.7,0.2,4.1c0,45.7-37,82.7-82.5,82.7c-45.7,0-82.7-37-82.7-82.7c0-1.3,0.2-2.8,0.2-4.1h-30.4c0,1.3,0.2,2.7,0.2,4.1c0,45.7-37,82.7-82.7,82.7c-45.6,0-82.5-37-82.5-82.7c0-1.3,0.2-2.8,0.2-4.1H144c6.6,9,10.6,20.2,10.6,32.2c0,30.1-24.3,54.6-54.5,54.6s-54.5-24.4-54.5-54.5c0-11.9,3.9-23.2,10.6-32.2H10v-33.7h52.6v-61.8h53.3l-56.4-91.9l57.5-90.1h74l-6-60.3h-6v-63.8h32.4c-0.8-1.8-1.6-3.5-2.4-5.6c-15-39.6,1.9-69.5,3.7-90.2c1.9-20.7,33.8-50.7,58.3-65.8c24.4-15-18.8-33.6,33.7-103.1c52.6-69.6,122.1-16.9,148.3-3.8c26.2,13.2,31.8,30.1,90,18.6c58.3-11.3,73.2-16.9,112.8,13.3c39.4,30,65.7-11.4,95.6-11.4c30,0,110.8,41.4,82.7,127.7c-28.1,86.3-97.6,46.9-105.1,46.9c-7.4,0-5.5-45.1-69.4-11.3c-63.8,33.6-88.2,16.9-118.1,3.6c-30.2-13.2-18.7-43.1-110.7,0c-92.3,43.5-90.3-13-129.8,5.9c-26.2,12.4-40.8,50.8-47.6,75h19.5v63.8h-8.7l-7.1,60.2h133.9v-30.1h283.4v30.1h31.9v-30.1h262.8v45.1H835.9v91.9h73.2v137.1h80.8h0.1v33.7L989.9,807.3L989.9,807.3z"/></g></g>
</svg>